<?xml version="1.0" encoding="utf-8"?>
<!-- Generator: Adobe Illustrator 23.1.0, SVG Export Plug-In . SVG Version: 6.00 Build 0)  -->
<svg version="1.1" xmlns="http://www.w3.org/2000/svg" xmlns:xlink="http://www.w3.org/1999/xlink" x="0px" y="0px"
	 viewBox="0 0 500 500" style="enable-background:new 0 0 500 500;" xml:space="preserve">
<style type="text/css">
	.st0{fill:#C6FF00;}
	.st1{opacity:0.7;fill:#FFFFFF;}
	.st2{fill:none;stroke:#263238;stroke-width:1.2035;stroke-linecap:round;stroke-linejoin:round;stroke-miterlimit:10;}
	.st3{display:none;}
	.st4{display:inline;}
	.st5{fill:none;stroke:#263238;stroke-linecap:round;stroke-linejoin:round;stroke-miterlimit:10;}
	.st6{opacity:0.5;fill:#FFFFFF;}
	.st7{clip-path:url(#XMLID_10_);}
	.st8{opacity:0.2;clip-path:url(#XMLID_10_);}
	.st9{fill:#FFFFFF;stroke:#263238;stroke-width:1.2035;stroke-linecap:round;stroke-linejoin:round;stroke-miterlimit:10;}
	.st10{fill:#263238;stroke:#263238;stroke-width:1.2035;stroke-linecap:round;stroke-linejoin:round;stroke-miterlimit:10;}
	.st11{clip-path:url(#XMLID_11_);}
	.st12{opacity:0.2;clip-path:url(#XMLID_11_);}
	.st13{clip-path:url(#XMLID_12_);}
	.st14{opacity:0.2;clip-path:url(#XMLID_12_);}
	.st15{clip-path:url(#XMLID_13_);}
	.st16{opacity:0.2;clip-path:url(#XMLID_13_);}
	.st17{clip-path:url(#XMLID_14_);fill:#C6FF00;}
	.st18{clip-path:url(#XMLID_15_);fill:#C6FF00;}
	.st19{opacity:0.2;clip-path:url(#XMLID_15_);}
	.st20{fill:#C6FF00;stroke:#263238;stroke-width:1.2035;stroke-linecap:round;stroke-linejoin:round;stroke-miterlimit:10;}
	.st21{fill:#263238;}
	.st22{clip-path:url(#XMLID_16_);}
	.st23{opacity:0.2;clip-path:url(#XMLID_16_);}
	.st24{clip-path:url(#XMLID_17_);}
	.st25{fill:#FFFFFF;}
	.st26{font-family:'Arial-Black';}
	.st27{font-size:52px;}
	.st28{font-family:'SandyKidsRegular';}
	.st29{font-size:22px;}
</style>
<g id="Background_Simple">
	<g>
		<path class="st0" d="M270.6,49.5c0,0-71-8.7-126.4,43c-55.4,51.7-70.3,132.9-84.1,198.4c-13.8,65.5,16.5,122.1,72.1,138.5
			c55.6,16.4,79.3-31.6,147.6-49c68.3-17.4,89.2-11.7,137-63.6c47.8-51.9,36.3-146.5-25-204.6C330.6,54.1,270.6,49.5,270.6,49.5z"/>
		<path class="st1" d="M270.6,49.5c0,0-71-8.7-126.4,43c-55.4,51.7-70.3,132.9-84.1,198.4c-13.8,65.5,16.5,122.1,72.1,138.5
			c55.6,16.4,79.3-31.6,147.6-49c68.3-17.4,89.2-11.7,137-63.6c47.8-51.9,36.3-146.5-25-204.6C330.6,54.1,270.6,49.5,270.6,49.5z"/>
	</g>
</g>
<g id="Landscape">
	<g>
		<path class="st2" d="M66.2,367.8c29.3-9,91-26.8,125.1-28.2c45.8-1.8,123.1,34.2,171.4,40.5c48.3,6.3,80.7,4.5,80.7,4.5"/>
		<path class="st2" d="M49.9,372.9c0,0,2.5-0.8,7-2.2"/>
		<path class="st2" d="M430.4,316.8c-11.8-2.8-30.5-6-51.5-5.3c-35.8,1.3-74.5,6.4-122.4,13.1c-47.9,6.7-116.1-30.3-162.5-16.6
			c-46.4,13.7-42.9,17.8-42.9,17.8"/>
		<path class="st2" d="M443.6,320.5c0,0-1.8-0.6-5.1-1.6"/>
	</g>
	<g class="st3">
		<g class="st4">
			<g>
				<path class="st5" d="M100.1,342.7l69-58.2c2.6-2.2,6-2.4,8.7-0.5l87,58.8l43.7-29.8c2.3-1.5,5.1-1.6,7.4-0.2l50.3,29.9"/>
				<path class="st5" d="M346.2,330.6l17-6.8c2-0.8,4.1-0.6,6,0.5l31.5,18.5"/>
				<path class="st5" d="M132.9,314.8l-7.6-5c-2.6-1.6-5.8-1.4-8.2,0.6l-40.1,32.3"/>
			</g>
			<line class="st5" x1="71.1" y1="342.8" x2="416.1" y2="342.8"/>
		</g>
		<g class="st4">
			<line class="st5" x1="291.2" y1="329.9" x2="292.7" y2="328.9"/>
			<line class="st5" x1="271.9" y1="342.8" x2="289.3" y2="331.2"/>
		</g>
		<g class="st4">
			<line class="st5" x1="148.1" y1="309.5" x2="151.1" y2="306.9"/>
			<line class="st5" x1="109.1" y1="342.8" x2="144.1" y2="312.9"/>
		</g>
	</g>
</g>
<g id="Clouds">
	<g>
		<g>
			<path class="st2" d="M287.1,91.5c-1.1-4.6-5.2-8-10.1-8c-4.9,0-9,3.4-10.1,8H287.1z"/>
			<path class="st2" d="M389.6,91.5c-1.2-5.2-5.7-9.2-11.1-9.9c0.3-1.8,0.5-3.7,0.5-5.6c0-16.8-13.6-30.4-30.4-30.4
				c-14.9,0-27.4,10.8-29.9,25c-3.3-2.6-7.4-4.1-11.9-4.1c-10.7,0-19.4,8.7-19.4,19.4c0,1.9,0.3,3.7,0.8,5.5H389.6z"/>
		</g>
		<g>
			<path class="st2" d="M106.6,115.8c-0.6-2.3-2.7-4-5.1-4c-2.5,0-4.6,1.7-5.1,4H106.6z"/>
			<path class="st2" d="M158.7,115.8c-0.6-2.7-2.9-4.7-5.6-5c0.2-0.9,0.3-1.9,0.3-2.8c0-8.5-6.9-15.4-15.4-15.4
				c-7.6,0-13.9,5.5-15.2,12.7c-1.7-1.3-3.8-2.1-6.1-2.1c-5.4,0-9.9,4.4-9.9,9.9c0,1,0.1,1.9,0.4,2.8H158.7z"/>
		</g>
		<g>
			<path class="st2" d="M153.4,132.1c-0.4-1.5-1.7-2.6-3.2-2.6c-1.6,0-2.9,1.1-3.2,2.6H153.4z"/>
			<path class="st2" d="M186.2,132.1c-0.4-1.7-1.8-3-3.6-3.2c0.1-0.6,0.2-1.2,0.2-1.8c0-5.4-4.4-9.7-9.7-9.7c-4.8,0-8.8,3.5-9.6,8
				c-1.1-0.8-2.4-1.3-3.8-1.3c-3.4,0-6.2,2.8-6.2,6.2c0,0.6,0.1,1.2,0.3,1.8H186.2z"/>
		</g>
	</g>
</g>
<g id="Character">
	<g>
		<path class="st0" d="M343.3,404.9c-0.3,0-0.6,0-1,0c-15.8-14.6-59.6-25-111.2-25c-64.9,0-117.5,16.6-117.5,37
			c0,20.5,52.6,37,117.5,37c43.2,0,80.9-7.3,101.3-18.3c3.5,0.2,7.1,0.3,10.8,0.3c32.9,0,59.7-6.9,59.7-15.5
			C403,411.9,376.3,404.9,343.3,404.9z"/>
		<path class="st6" d="M343.3,404.9c-0.3,0-0.6,0-1,0c-15.8-14.6-59.6-25-111.2-25c-64.9,0-117.5,16.6-117.5,37
			c0,20.5,52.6,37,117.5,37c43.2,0,80.9-7.3,101.3-18.3c3.5,0.2,7.1,0.3,10.8,0.3c32.9,0,59.7-6.9,59.7-15.5
			C403,411.9,376.3,404.9,343.3,404.9z"/>
	</g>
	<g>
		<defs>
			<path id="XMLID_8_" d="M307,255.6c0,0,3.3,29.5,18.8,36.8c15.4,7.4,24.1-4,24.1-14.4c0-10.4,17.4-20.1,30.1-20.1
				c12.7,0,16.4,17.1,11.1,31.1c-5.4,14.1-12.1,30.8-37.2,38.8c-25.1,8-39.9-2.7-39.9-2.7s3.7,7.4,0,8.4c-3.7,1-14.1-10.4-14.1-10.4
				s4.7,10-0.7,6.7c-5.4-3.3-11.1-23.1-11.1-23.1s0.3,7-4,7.7c-4.4,0.7-6.7-14.4-6.7-14.4l27.8-51.2L307,255.6z"/>
		</defs>
		<use xlink:href="#XMLID_8_"  style="overflow:visible;fill:#FFFFFF;"/>
		<clipPath id="XMLID_10_">
			<use xlink:href="#XMLID_8_"  style="overflow:visible;"/>
		</clipPath>
		<g class="st7">
			<path class="st0" d="M366.9,305.9c-4.4,0-8,3.6-8,8c0,4.4,3.6,8,8,8c0.1,0,0.3,0,0.4,0c2.7-1.6,5.1-3.4,7.2-5.3
				c0.3-0.8,0.5-1.7,0.5-2.7C374.9,309.5,371.3,305.9,366.9,305.9z"/>
			<path class="st0" d="M349.3,282.8c-2.2,8.6-10.5,15.8-23.5,9.6c-0.6-0.3-1.1-0.6-1.7-0.9c-0.4,1.3-0.6,2.7-0.6,4.1
				c0,8.9,7.2,16,16,16c8.9,0,16-7.2,16-16C355.6,290.4,353.1,285.8,349.3,282.8z"/>
			<path class="st0" d="M319.1,327.4c0-6.2-5-11.2-11.2-11.2c-6.1,0-11,4.8-11.2,10.9c0.9,1.3,1.8,2.3,2.7,2.9
				c5.4,3.3,0.7-6.7,0.7-6.7s10.4,11.4,14.1,10.4c3.7-1,0-8.4,0-8.4s1.7,1.3,5,2.6C319.1,327.7,319.1,327.5,319.1,327.4z"/>
		</g>
		<path class="st8" d="M389.4,273.2c-6.1,7.8-16.2,40.7-41.8,47.9c-25.6,7.2-49-9.5-49-9.5s3.9-3.9,11.7-17.3
			c2.4-4.2,4.2-8.2,5.5-11.7c-7-11.4-8.8-27.1-8.8-27.1l-1.7-6.7l-27.8,51.2c0,0,2.3,15.1,6.7,14.4c4.4-0.7,4-7.7,4-7.7
			s5.7,19.8,11.1,23.1c5.4,3.3,0.7-6.7,0.7-6.7s10.4,11.4,14.1,10.4c3.7-1,0-8.4,0-8.4s14.7,10.7,39.9,2.7
			c25.1-8,31.8-24.8,37.2-38.8c2.1-5.5,2.8-11.5,2.1-16.7C391.5,271.9,390.2,272.2,389.4,273.2z"/>
		
			<use xlink:href="#XMLID_8_"  style="overflow:visible;fill:none;stroke:#263238;stroke-width:1.2035;stroke-linecap:round;stroke-linejoin:round;stroke-miterlimit:10;"/>
	</g>
	<path class="st9" d="M383.2,299.4L383.2,299.4c-2.2,0-4-1.8-4-4v-63h8v63C387.2,297.6,385.4,299.4,383.2,299.4z"/>
	<rect x="331.1" y="129.3" class="st10" width="110.5" height="107.8"/>
	<path class="st9" d="M381.2,277.4c0,0,14.2-7.8,20.1-2.7c5.9,5.1,3.5,13.1-1.1,15c-4.5,1.9-14.4,4.3-19.8,2.4
		C375,290.2,370.5,282.5,381.2,277.4z"/>
	<path class="st9" d="M375,256.9c0,0,17.7-9.7,25.1-3.3c7.4,6.4,4.4,16.4-1.3,18.8c-5.7,2.3-18.1,5.4-24.8,3
		C367.3,273,361.6,263.3,375,256.9z"/>
	<g>
		<path class="st9" d="M350.9,284c0,0-3.7-18.8,2.7-29.8c6.4-11.1,22.1-4,27.1,7.7c5,11.7,2,24.1-7.7,24.1
			c-9.7,0-11.4-15.4-11.4-15.4"/>
		<path class="st9" d="M377.9,281.7c0,0,1,6.4-1.7,10.9c-0.5,0.8-1.5,1.2-2.4,0.8l0,0c-0.6-0.3-1.1-0.8-1.2-1.5
			c-0.3-2-0.9-6.1-2.5-8.8c-0.8-1.4-0.9-3.1,0-4.5c0.5-0.8,1.3-1.5,2.6-1.7C376.3,276.3,377.6,277.8,377.9,281.7z"/>
	</g>
	<g>
		<g>
			<defs>
				<path id="XMLID_7_" d="M203.4,311.4v70.8c0,0-20.7,14.9-30.1,18.8c-9.4,3.9-24.2-5.5-33.2,2c-9,7.4-5.9,19.2,5.1,20.3
					c0,0,0,6.3,5.5,9c5.5,2.7,10.9,0.4,10.9,0.4s0.8,9.4,12.1,8.6c11.3-0.8,14.1-9.8,20.3-18.8c6.3-9,10.2-17.2,19.5-18.4
					c9.4-1.2,15.2-3.1,15.2-14.5c0-7-7-7.4-7.8-14.5c-0.8-7,0-61,0-61L203.4,311.4z"/>
			</defs>
			<use xlink:href="#XMLID_7_"  style="overflow:visible;fill:#FFFFFF;"/>
			<clipPath id="XMLID_11_">
				<use xlink:href="#XMLID_7_"  style="overflow:visible;"/>
			</clipPath>
			<g class="st11">
				<circle class="st0" cx="211.3" cy="385.4" r="5.1"/>
				<path class="st0" d="M210.7,328c0-2.3-1.9-4.2-4.2-4.2c-1.2,0-2.3,0.6-3.1,1.4v5.5c0.8,0.9,1.9,1.4,3.1,1.4
					C208.8,332.2,210.7,330.3,210.7,328z"/>
				<path class="st0" d="M217.7,347.6c-3.5,0-6.4,2.9-6.4,6.4c0,3.5,2.9,6.4,6.4,6.4c1.1,0,2-0.3,2.9-0.7c0-3.5,0-7.4,0-11.4
					C219.8,347.9,218.8,347.6,217.7,347.6z"/>
			</g>
			<path class="st12" d="M228.8,389.6c0-7-7-7.4-7.8-14.5c-0.8-7,0-61,0-61l-17.6-2.7v22.7c3.7,2.3,8.5,4.5,13.3,4.2V379
				c0,0,3.3,8.9,1.1,16.2c-2.2,7.2-19.5,7.2-25.1,13.9c-5.6,6.7-9.5,20.6-15,26.7c-2,2.2-4.2,4-6.1,5.4c0.7,0,1.3,0,2.1,0
				c11.3-0.8,14.1-9.8,20.3-18.8c6.3-9,10.2-17.2,19.5-18.4C222.9,402.9,228.8,400.9,228.8,389.6z"/>
			
				<use xlink:href="#XMLID_7_"  style="overflow:visible;fill:none;stroke:#263238;stroke-width:1.2035;stroke-linecap:round;stroke-linejoin:round;stroke-miterlimit:10;"/>
		</g>
		<path class="st2" d="M161.6,432.6c0,0-0.4-13.7,16.4-19.5"/>
		<path class="st2" d="M145.1,423.2c0,0,0-10.9,18.4-15.2"/>
		<path class="st9" d="M163.3,430.4c0,0-5.4,3.5-7.1,8.5c-0.3,0.9,0.1,1.9,1,2.3l0,0c0.6,0.3,1.3,0.3,1.9-0.1
			c1.6-1.1,5.2-3.3,8.3-3.9c1.6-0.3,2.9-1.4,3.4-3c0.3-0.9,0.3-1.9-0.4-3C168.4,428,166.5,428,163.3,430.4z"/>
		<path class="st9" d="M147.2,423.7c0,0-5.4,3.5-7.1,8.5c-0.3,0.9,0.1,1.9,1,2.3l0,0c0.6,0.3,1.3,0.3,1.9-0.1
			c1.6-1.1,5.2-3.3,8.3-3.9c1.6-0.3,2.9-1.4,3.4-3c0.3-0.9,0.3-1.9-0.4-3C152.2,421.3,150.3,421.3,147.2,423.7z"/>
		<path class="st9" d="M134.2,412.6c0,0-5.4,3.5-7.1,8.5c-0.3,0.9,0.1,1.9,1,2.3l0,0c0.6,0.3,1.3,0.3,1.9-0.1
			c1.6-1.1,5.2-3.3,8.3-3.9c1.6-0.3,2.9-1.4,3.4-3c0.3-0.9,0.3-1.9-0.4-3C139.3,410.2,137.4,410.2,134.2,412.6z"/>
	</g>
	<g>
		<g>
			<defs>
				<path id="XMLID_6_" d="M265,311.4v70.8c0,0,20.7,14.9,30.1,18.8c9.4,3.9,24.2-5.5,33.2,2c9,7.4,5.9,19.2-5.1,20.3
					c0,0,0,6.3-5.5,9c-5.5,2.7-10.9,0.4-10.9,0.4s-0.8,9.4-12.1,8.6c-11.3-0.8-14.1-9.8-20.3-18.8c-6.3-9-10.2-17.2-19.5-18.4
					c-9.4-1.2-15.2-3.1-15.2-14.5c0-7,7-7.4,7.8-14.5c0.8-7,0-61,0-61L265,311.4z"/>
			</defs>
			<use xlink:href="#XMLID_6_"  style="overflow:visible;fill:#FFFFFF;"/>
			<clipPath id="XMLID_12_">
				<use xlink:href="#XMLID_6_"  style="overflow:visible;"/>
			</clipPath>
			<g class="st13">
				<circle class="st0" cx="256.8" cy="376.5" r="5.1"/>
				<path class="st0" d="M247.7,341.7c0.8,0.5,1.7,0.8,2.7,0.8c2.8,0,5.1-2.3,5.1-5.1c0-2.8-2.3-5.1-5.1-5.1c-1,0-2,0.3-2.8,0.8
					C247.7,335.8,247.7,338.7,247.7,341.7z"/>
				<path class="st0" d="M265,348.5c-3.2,0.9-5.6,3.9-5.6,7.4s2.4,6.5,5.6,7.4V348.5z"/>
			</g>
			<path class="st14" d="M247.4,314.1c0,0,0.1,10.2,0.3,22.4c3,0.4,8.4,0.7,15.3-0.4c0,0-2.8,41.8-2.2,47.3
				c0.6,5.6,25.6,20.1,32.9,21.7c7.2,1.7,19.9,0.8,26.7,4.5c4.2,2.2,6.1,8.2,7.1,12.5c7.5-3.3,8.7-12.9,1-19.3c-9-7.4-23.8,2-33.2-2
				c-9.4-3.9-30.1-18.8-30.1-18.8v-70.8L247.4,314.1z"/>
			
				<use xlink:href="#XMLID_6_"  style="overflow:visible;fill:none;stroke:#263238;stroke-width:1.2035;stroke-linecap:round;stroke-linejoin:round;stroke-miterlimit:10;"/>
		</g>
		<path class="st2" d="M306.9,432.6c0,0,0.4-13.7-16.4-19.5"/>
		<path class="st2" d="M323.3,423.2c0,0,0-10.9-18.4-15.2"/>
		<path class="st9" d="M305.1,430.4c0,0,5.4,3.5,7.1,8.5c0.3,0.9-0.1,1.9-1,2.3l0,0c-0.6,0.3-1.3,0.3-1.9-0.1
			c-1.6-1.1-5.2-3.3-8.3-3.9c-1.6-0.3-2.9-1.4-3.4-3c-0.3-0.9-0.3-1.9,0.4-3C300,428,302,428,305.1,430.4z"/>
		<path class="st9" d="M321.3,423.7c0,0,5.4,3.5,7.1,8.5c0.3,0.9-0.1,1.9-1,2.3l0,0c-0.6,0.3-1.3,0.3-1.9-0.1
			c-1.6-1.1-5.2-3.3-8.3-3.9c-1.6-0.3-2.9-1.4-3.4-3c-0.3-0.9-0.3-1.9,0.4-3C316.2,421.3,318.1,421.3,321.3,423.7z"/>
		<path class="st9" d="M334.2,412.6c0,0,5.4,3.5,7.1,8.5c0.3,0.9-0.1,1.9-1,2.3l0,0c-0.6,0.3-1.3,0.3-1.9-0.1
			c-1.6-1.1-5.2-3.3-8.3-3.9c-1.6-0.3-2.9-1.4-3.4-3c-0.3-0.9-0.3-1.9,0.4-3C329.1,410.2,331,410.2,334.2,412.6z"/>
	</g>
	<g>
		<path class="st9" d="M134.7,349.2c0,0-0.2-8.6,2.1-11.4c2.3-2.7,5,9.9,4.8,11.6C141.5,351.1,138.5,354,134.7,349.2z"/>
		<path class="st9" d="M149.9,346.2c0,0-0.2-8.6,2.1-11.4c2.3-2.7,5,9.9,4.8,11.6C156.6,348.1,153.7,351.1,149.9,346.2z"/>
		<path class="st9" d="M133.5,357.9c0,0-2.7-12.5,3.9-13.3c6.7-0.8,12.1,22.7,12.1,22.7s-4.7-25.1,3.5-25.8c8.2-0.8,9,22.7,9,24.7
			c0,2-7,10.6-17.6,12.9C133.8,381.4,133.5,357.9,133.5,357.9z"/>
		<path class="st9" d="M124.8,355.1c0,0-0.2-8.6,2.1-11.4c2.3-2.7,5,9.9,4.8,11.6C131.6,357,128.6,359.9,124.8,355.1z"/>
		<g>
			<defs>
				<path id="XMLID_5_" d="M165.2,241.6c0,0-9.8,8.2-15.3,25.4c-5.5,17.2-7.4,25.1-2,23.9c5.5-1.2,7.4-7.8,7.4-7.8
					s-6.7,19.6-3.1,21.1c3.5,1.6,8.2-2,8.2-2s-1.6,17.2,1.6,22.3s4.3,5.1,4.3,5.1V361c0,0-9.4-2.3-17.2,1.6
					c-7.8,3.9-8.6,9.8-8.6,9.8s-3.5-18.8-11.4-21.5c-7.8-2.7-7.8,14.5-3.5,24.3c4.3,9.8,17.6,14.1,18.8,14.1c1.2,0-2.3,3.1-2.3,3.1
					l10.6-2.7c0,0-5.1,5.9-1.6,5.9c3.5,0,14.9-5.9,14.9-5.9s-3.9,4.7,0.8,4.7c4.7,0,11.4-7,11.4-7s0,3.5,4.3-0.8
					c4.3-4.3,13.7-3.5,15.7-29c2-25.4,0-57.6,0-57.6S188.7,224.8,165.2,241.6z"/>
			</defs>
			<use xlink:href="#XMLID_5_"  style="overflow:visible;fill:#FFFFFF;"/>
			<clipPath id="XMLID_13_">
				<use xlink:href="#XMLID_5_"  style="overflow:visible;"/>
			</clipPath>
			<g class="st15">
				<path class="st0" d="M168.4,300.1c0,6.7,5.4,12.1,12.1,12.1c6.7,0,12.1-5.4,12.1-12.1c0-6.7-5.4-12.1-12.1-12.1
					C173.8,288,168.4,293.4,168.4,300.1z"/>
				<path class="st0" d="M161.2,379.7c-6.3,0-11.4,4.7-12,10.8l3.5-0.9c0,0-5.1,5.9-1.6,5.9c3.5,0,14.9-5.9,14.9-5.9
					s-3.9,4.7,0.8,4.7c2,0,4.5-1.3,6.5-2.8C173.1,384.9,167.8,379.7,161.2,379.7z"/>
				
					<ellipse transform="matrix(0.3867 -0.9222 0.9222 0.3867 -209.9806 382.8572)" class="st0" cx="182.9" cy="349.3" rx="15.2" ry="15.2"/>
				<path class="st0" d="M147.9,290.9c4.7-1,6.8-6.1,7.3-7.5c-0.5,1.4-2.4,7.4-3.4,12.6c4.8-1.9,8.1-6.5,8.1-11.9
					c0-6.6-5-12-11.4-12.8C144.1,285.5,142.9,292,147.9,290.9z"/>
			</g>
			<path class="st16" d="M165.2,241.6c0,0-5.1,4.3-10,13.2c0.2,9.5,1.6,21.1,6.4,32.3c11.1,26.2,26.2,33.4,26.2,33.4
				s3.3,31.2-2.8,47.9c-5.8,15.7-22.4,22.6-43,20.1c1.3,0.5,2.2,0.7,2.4,0.7c1.2,0-2.3,3.1-2.3,3.1l10.6-2.7c0,0-5.1,5.9-1.6,5.9
				c3.5,0,14.9-5.9,14.9-5.9s-3.9,4.7,0.8,4.7c4.7,0,11.4-7,11.4-7s0,3.5,4.3-0.8c4.3-4.3,13.7-3.5,15.7-29c2-25.4,0-57.6,0-57.6
				S188.7,224.8,165.2,241.6z"/>
			
				<use xlink:href="#XMLID_5_"  style="overflow:visible;fill:none;stroke:#263238;stroke-width:1.2035;stroke-linecap:round;stroke-linejoin:round;stroke-miterlimit:10;"/>
		</g>
	</g>
	<g>
		<defs>
			<path id="XMLID_4_" d="M171.6,202.8c0,0-11.2,17.2-31.4,22.4c-20.2,5.2-37.9,3.4-37.5,4.7c0.4,1.3,7.3,5.6,7.3,5.6
				s-6.5-0.4-5.6,1.7c0.9,2.2,6.9,12.1,27.1,17.2c20.2,5.2,32.7-21.5,36.6-33.2C172,209.7,175,201.1,171.6,202.8z"/>
		</defs>
		<use xlink:href="#XMLID_4_"  style="overflow:visible;fill:#FFFFFF;"/>
		<clipPath id="XMLID_14_">
			<use xlink:href="#XMLID_4_"  style="overflow:visible;"/>
		</clipPath>
		<path class="st17" d="M111.3,229.1c0.9,10.7,9.9,19,20.8,19c11.5,0,20.9-9.3,20.9-20.9c0-2.4-0.4-4.6-1.1-6.8
			c-3.5,1.9-7.3,3.5-11.6,4.6C128.8,228.1,118.3,228.8,111.3,229.1z"/>
		
			<use xlink:href="#XMLID_4_"  style="overflow:visible;fill:none;stroke:#263238;stroke-width:1.2035;stroke-linecap:round;stroke-linejoin:round;stroke-miterlimit:10;"/>
	</g>
	<g>
		<defs>
			<path id="XMLID_3_" d="M297.4,201.1c0,0,11.2,17.2,31.4,22.4c20.2,5.2,37.9,3.4,37.5,4.7c-0.4,1.3-7.3,5.6-7.3,5.6
				s6.5-0.4,5.6,1.7c-0.9,2.2-6.9,12.1-27.1,17.2c-20.2,5.2-32.7-21.5-36.6-33.2C297,208,294,199.4,297.4,201.1z"/>
		</defs>
		<use xlink:href="#XMLID_3_"  style="overflow:visible;fill:#FFFFFF;"/>
		<clipPath id="XMLID_15_">
			<use xlink:href="#XMLID_3_"  style="overflow:visible;"/>
		</clipPath>
		<path class="st18" d="M341.5,226c-0.8,2-1.2,4.2-1.2,6.4c0,6.9,4,12.9,9.8,15.8c10.3-5.1,13.9-11.1,14.5-12.7
			c0.9-2.2-5.6-1.7-5.6-1.7s6.9-4.3,7.3-5.6C366.6,227.2,355.9,228.1,341.5,226z"/>
		<path class="st19" d="M322.6,234.2c0.5-4.1-0.3-9.1-1.3-13.4c-15.4-6.8-23.8-19.7-23.8-19.7c-3.4-1.7-0.4,6.9,3.4,18.5
			c3.9,11.6,16.4,38.3,36.6,33.2C322.8,253,321.4,243.7,322.6,234.2z"/>
		
			<use xlink:href="#XMLID_3_"  style="overflow:visible;fill:none;stroke:#263238;stroke-width:1.2035;stroke-linecap:round;stroke-linejoin:round;stroke-miterlimit:10;"/>
	</g>
	<g>
		<path class="st20" d="M189.7,180.4c0,0-13.8,2.6-21.1,0c-7.3-2.6-2.2-7.8-5.2-11.6c-3-3.9-12.1,3-12.9,15.5
			c-0.9,12.5,13.4,19.4,28,20.7l17.2-24.5H189.7z"/>
		<g>
			<path class="st21" d="M173.2,181.3c-1.6-0.2-3.1-0.5-4.4-0.9c-8.8,5.9-9.2,14.6-8.7,19.2c1,0.6,2.2,1.2,3.3,1.7
				C162.7,198.6,160.8,187.5,173.2,181.3z"/>
			<path class="st21" d="M164.4,174.2c-6.3,1.4-10.9,4-13.7,7.8c-0.1,0.7-0.2,1.5-0.3,2.3c-0.1,1.7,0.1,3.3,0.5,4.9
				c0.2-1.4,0.7-3,1.6-4.5c2.2-3.5,6.2-6,12.1-7.4C164.3,176.3,164.3,175.2,164.4,174.2z"/>
		</g>
	</g>
	<g>
		<path class="st20" d="M282.3,180.4c0,0,13.8,2.6,21.1,0c7.3-2.6,2.2-7.8,5.2-11.6c3-3.9,12.1,3,12.9,15.5
			c0.9,12.5-13.4,19.4-28,20.7l-17.2-24.5H282.3z"/>
		<g>
			<path class="st21" d="M298.8,181.3c1.6-0.2,3.1-0.5,4.4-0.9c8.8,5.9,9.2,14.6,8.7,19.2c-1,0.6-2.2,1.2-3.3,1.7
				C309.3,198.6,311.2,187.5,298.8,181.3z"/>
			<path class="st21" d="M307.6,174.2c6.3,1.4,10.9,4,13.7,7.8c0.1,0.7,0.2,1.5,0.3,2.3c0.1,1.7-0.1,3.3-0.5,4.9
				c-0.2-1.4-0.7-3-1.6-4.5c-2.2-3.5-6.2-6-12.1-7.4C307.7,176.3,307.7,175.2,307.6,174.2z"/>
		</g>
	</g>
	<g>
		<g>
			<defs>
				<ellipse id="XMLID_2_" cx="235.6" cy="242.4" rx="73.4" ry="82.7"/>
			</defs>
			<use xlink:href="#XMLID_2_"  style="overflow:visible;fill:#FFFFFF;"/>
			<clipPath id="XMLID_16_">
				<use xlink:href="#XMLID_2_"  style="overflow:visible;"/>
			</clipPath>
			<g class="st22">
				<path class="st0" d="M200.4,180.1c6,0,10.9-4.9,10.9-10.9c0-1.6-0.4-3.1-1-4.5c-6.7,2.8-12.9,6.6-18.5,11.3
					C193.9,178.5,196.9,180.1,200.4,180.1z"/>
				<path class="st0" d="M199.8,298.2c0-8.9-6.3-16-14.1-16c-4.5,0-8.5,2.4-11.1,6.1c5.2,8.9,12,16.5,19.8,22.5
					C197.6,307.9,199.8,303.3,199.8,298.2z"/>
				<ellipse class="st0" cx="240.8" cy="312.9" rx="9.6" ry="8.3"/>
				<path class="st0" d="M192.1,234.7c0-14.8-10.1-26.8-22.8-27.5c-4.5,10.7-7,22.7-7,35.3c0,6.7,0.7,13.3,2.1,19.5
					c1.2,0.2,2.4,0.3,3.7,0.3C181.3,262.3,192.1,249.9,192.1,234.7z"/>
				<path class="st0" d="M294.1,253.3c-5.3,0-9.6,4.3-9.6,9.6c0,5.3,4.3,9.6,9.6,9.6c5.3,0,9.6-4.3,9.6-9.6
					C303.7,257.6,299.4,253.3,294.1,253.3z"/>
				<path class="st0" d="M298.5,280.2c0,1.1,0.3,2.2,0.9,3.1c1.4-2.8,2.7-5.7,3.8-8.7C300.6,275,298.5,277.4,298.5,280.2z"/>
				<path class="st0" d="M295.1,290.9c-2.4-1.1-5-1.7-7.8-1.7c-10.5,0-18.9,8.5-18.9,18.9c0,2.6,0.5,5.2,1.5,7.4
					C279.9,309.6,288.5,301.1,295.1,290.9z"/>
				<path class="st0" d="M290.6,187.5c-3.8,4.3-6.1,9.9-6.1,16c0,13.1,10.4,23.7,23.4,24C305.4,212.4,299.3,198.6,290.6,187.5z"/>
			</g>
			<path class="st23" d="M276,173.3c5,7.3,12.6,21.2,18.1,44.2c8.9,37.3,1.7,52.9,1.7,52.9l-4.5-11.1c0,0,1.7,13.9-3.3,22.3
				c-5,8.4-8.7,14.8-10.5,18.6c-1.8,3.7-1.8-5.2-1.8-5.2s-4.1,12-7.4,13.2c-3.2,1.3-12.7,6.3-12.7,6.3l0.6-6.7
				c0,0-13.9,5.6-21.7,5.6c-7.8,0-27.3-2.2-37.9-8.9c-6-3.8-14.7-9.9-21.1-14.5c13.3,21.3,35.2,35.3,60.1,35.3
				c40.5,0,73.4-37,73.4-82.7C309,213.5,295.9,188.1,276,173.3z"/>
			
				<use xlink:href="#XMLID_2_"  style="overflow:visible;fill:none;stroke:#263238;stroke-width:1.2035;stroke-linecap:round;stroke-linejoin:round;stroke-miterlimit:10;"/>
		</g>
		<path class="st9" d="M230.9,163.3c0,0-0.4-1.2-7-3.5c-6.7-2.3-14.1,0.8-10.2-2.3c3.9-3.1,17.2-3.5,19.6-1.2
			c2.3,2.3-7.4-3.5-7.4-7.4c0-3.9,11.4-2,14.9,1.2c3.5,3.1,4.7,5.5,4.7,5.5s-0.4-14.5,6.7-18c7-3.5,12.5,3.5,9.4,7.4
			c-3.1,3.9-9.8,10.6-9.8,10.6s16.1-5.9,15.3,0.8c-0.8,6.7-16.8,7-16.8,7"/>
		<g>
			<ellipse class="st10" cx="237.4" cy="220.4" rx="20.6" ry="21.3"/>
			
				<ellipse transform="matrix(0.1612 -0.9869 0.9869 0.1612 -16.3076 417.3954)" class="st20" cx="237.4" cy="218.3" rx="20.6" ry="20.6"/>
			<circle class="st10" cx="237.4" cy="218.3" r="10.8"/>
		</g>
		<path class="st9" d="M212.5,180.9c0,0-11.4,2-12.9,6.7c-1.6,4.7,7,5.5,7,5.5s-10.2,8.6-5.5,11.7c4.7,3.1,13.7-8.6,13.7-8.6
			s10.6,8.2,21.5,8.2c11,0,21.9-8.6,21.9-8.6s9.4,10.6,12.9,8.6c3.5-2-6.3-14.5-6.3-14.5s9,2,1.6-5.1c-7.4-7-15.7-3.9-15.7-3.9"/>
		<path class="st2" d="M209,244.3c0,0-7,3.9-13.3,12.9c-6.3,9-4.3,14.5-1.2,14.9c3.1,0.4,13.7-13.3,13.7-13.3s-5.1,12.9,1.2,12.1
			c6.3-0.8,13.7-15.3,13.7-15.3s-0.4,9,4.3,8.6c4.7-0.4,10.2-16.1,10.2-16.1s2.7,15.7,7.4,15.7s5.1-9.8,5.1-9.8s5.5,17.2,10.2,13.7
			c4.7-3.5,1.6-14.9,1.6-14.9s4.3,23.1,10.2,18.8c5.9-4.3-2.7-22.7-9-29.4"/>
		<g>
			<defs>
				<path id="XMLID_1_" d="M260.6,291.3c-2.2,0-4.3-1.2-5.4-3.2c-0.3-0.5-6.2-10.8-17.8-10.8c-11.7,0-20.6,11.2-20.7,11.3
					c-2.1,2.7-5.9,3.2-8.6,1.1c-2.7-2.1-3.2-5.9-1.1-8.6c0.5-0.7,12.6-16,30.4-16c19.1,0,28.2,16.5,28.6,17.2c1.6,3,0.5,6.7-2.5,8.3
					C262.6,291.1,261.6,291.3,260.6,291.3z"/>
			</defs>
			<use xlink:href="#XMLID_1_"  style="overflow:visible;fill:#263238;"/>
			<clipPath id="XMLID_17_">
				<use xlink:href="#XMLID_1_"  style="overflow:visible;"/>
			</clipPath>
			<g class="st24">
				<path class="st25" d="M209.9,277.9l9.3,3.2l-1.1-9.9C214.6,273.5,211.8,276,209.9,277.9z"/>
				<path class="st25" d="M257.1,272l-0.7,11.1l9.1-1.6C264.5,279.8,261.7,275.7,257.1,272z"/>
			</g>
			<g class="st24">
				<path class="st25" d="M259.9,283.1l-6,3c0.8,1.1,1.3,1.9,1.3,2c1.1,2,3.2,3.2,5.4,3.2c0.6,0,1.2-0.1,1.7-0.3L259.9,283.1z"/>
				<path class="st25" d="M216.7,288.6c0,0,0.7-0.9,2-2.2l-7.7-4.1l-2,7.9C211.6,291.6,214.8,291,216.7,288.6z"/>
			</g>
			
				<use xlink:href="#XMLID_1_"  style="overflow:visible;fill:none;stroke:#263238;stroke-width:1.2035;stroke-linecap:round;stroke-linejoin:round;stroke-miterlimit:10;"/>
		</g>
		<path class="st25" d="M234.6,212.6c0,3.3-2.7,6-6,6s-6-2.7-6-6c0-3.3,2.7-6,6-6S234.6,209.3,234.6,212.6z"/>
	</g>
</g>
<g id="Layer_5">
	<text transform="matrix(0.9245 0 0 1 338.2958 216.8362)" class="st0 st26 st27">403</text>
	<text transform="matrix(1 0 0 1 336.9488 163.2064)" class="st25 st28 st29">RESTRICTED</text>
</g>
</svg>
